<?xml version="1.0" encoding="UTF-8"?>
<svg width="40px" height="34px" viewBox="0 0 40 34" version="1.1" xmlns="http://www.w3.org/2000/svg" xmlns:xlink="http://www.w3.org/1999/xlink">
    <!-- Generator: Sketch 52.5 (67469) - http://www.bohemiancoding.com/sketch -->
    <title>left-quote (6)</title>
    <desc>Created with Sketch.</desc>
    <g id="Page-1" stroke="none" stroke-width="1" fill="none" fill-rule="evenodd">
        <g id="Services" transform="translate(-170.000000, -2777.000000)" fill="#C50F42">
            <g id="Group-16" transform="translate(0.000000, 2432.000000)">
                <g id="Group-12" transform="translate(130.000000, 315.000000)">
                    <g id="Group-11">
                        <g id="left-quote-(6)" transform="translate(40.000000, 30.000000)">
                            <path d="M12.7133333,15.5052593 C11.735,15.2215062 10.7566667,15.0775309 9.805,15.0775309 C8.33541667,15.0775309 7.10916667,15.4158519 6.15833333,15.8301481 C7.075,12.4494568 9.27708333,6.61614815 13.66375,5.95923457 C14.07,5.89837037 14.4029167,5.60244444 14.51375,5.20409877 L15.4725,1.74953086 C15.5533333,1.45738272 15.5054167,1.14466667 15.34,0.891135802 C15.1745833,0.637604938 14.90875,0.468444444 14.6108333,0.427308642 C14.2870833,0.382814815 13.9570833,0.360148148 13.63,0.360148148 C8.36458333,0.360148148 3.15,5.89669136 0.949583333,13.8241481 C-0.342083333,18.4750123 -0.720833333,25.4672593 2.46083333,29.8683704 C4.24125,32.3310617 6.83875,33.6461481 10.18125,33.7775309 C10.195,33.7779506 10.2083333,33.7783704 10.2220833,33.7783704 C14.34625,33.7783704 18.0033333,30.9802963 19.1158333,26.9745926 C19.7804167,24.5799012 19.48,22.0685185 18.2691667,19.9013333 C17.07125,17.7584938 15.0983333,16.1965926 12.7133333,15.5052593 Z" id="Path"></path>
                            <path d="M38.5295833,19.9017531 C37.3316667,17.7584938 35.35875,16.1965926 32.97375,15.5052593 C31.9954167,15.2215062 31.0170833,15.0775309 30.0658333,15.0775309 C28.59625,15.0775309 27.3695833,15.4158519 26.41875,15.8301481 C27.3354167,12.4494568 29.5375,6.61614815 33.9245833,5.95923457 C34.3308333,5.89837037 34.6633333,5.60244444 34.7745833,5.20409877 L35.7333333,1.74953086 C35.8141667,1.45738272 35.76625,1.14466667 35.6008333,0.891135802 C35.4358333,0.637604938 35.17,0.468444444 34.8716667,0.427308642 C34.5483333,0.382814815 34.2183333,0.360148148 33.8908333,0.360148148 C28.6254167,0.360148148 23.4108333,5.89669136 21.21,13.8241481 C19.91875,18.4750123 19.54,25.4672593 22.7220833,29.8692099 C24.5020833,32.3314815 27.1,33.6469877 30.4420833,33.7779506 C30.4558333,33.7783704 30.4691667,33.7787901 30.4833333,33.7787901 C34.6070833,33.7787901 38.2645833,30.980716 39.3770833,26.9750123 C40.0408333,24.580321 39.74,22.0685185 38.5295833,19.9017531 Z" id="Path"></path>
                        </g>
                    </g>
                </g>
            </g>
        </g>
    </g>
</svg>