<?xml version="1.0" encoding="UTF-8"?>
<svg width="50px" height="50px" viewBox="0 0 50 50" version="1.1" xmlns="http://www.w3.org/2000/svg" xmlns:xlink="http://www.w3.org/1999/xlink">
    <!-- Generator: Sketch 52.5 (67469) - http://www.bohemiancoding.com/sketch -->
    <title>Group 12</title>
    <desc>Created with Sketch.</desc>
    <g id="Page-1" stroke="none" stroke-width="1" fill="none" fill-rule="evenodd">
        <g id="About" transform="translate(-160.000000, -1690.000000)">
            <g id="Group-10" transform="translate(0.000000, 1555.000000)">
                <g id="Group-8" transform="translate(130.000000, 105.000000)">
                    <g id="Group-7">
                        <g id="Group-12" transform="translate(30.000000, 30.000000)">
                            <circle id="Oval" fill="#D8D8D8" opacity="0.100000001" cx="25" cy="25" r="25"></circle>
                            <path d="M38.0769231,11.7179487 C36.974359,10.6153846 35.5128205,10 33.9487179,10 C32.3846154,10 30.9230769,10.6153846 29.8205128,11.7179487 C29.3333333,12.2051282 28.9487179,12.7692308 28.6666667,13.3846154 L25.6153846,10.3333333 C25.2051282,9.92307692 24.5384615,9.92307692 24.1538462,10.3333333 L10.3076923,24.1794872 C9.8974359,24.5897436 9.8974359,25.2307692 10.3076923,25.6410256 L24.1538462,39.4871795 C24.3589744,39.6923077 24.6153846,39.7948718 24.8974359,39.7948718 C25.1794872,39.7948718 25.4358974,39.6923077 25.6410256,39.4871795 L30.0512821,35.0769231 C30.3333333,34.7948718 30.4358974,34.3589744 30.2820513,33.974359 C30.1282051,33.5897436 29.7948718,33.3333333 29.3846154,33.3076923 C28.4871795,33.2307692 27.6410256,32.8461538 27,32.2307692 C26.2820513,31.5128205 25.8974359,30.5641026 25.8974359,29.5641026 C25.8974359,28.5641026 26.2820513,27.6153846 27,26.8974359 C27.7179487,26.1794872 28.6666667,25.7948718 29.6666667,25.7948718 C30.6666667,25.7948718 31.6153846,26.1794872 32.3333333,26.8974359 C32.974359,27.5384615 33.3589744,28.3846154 33.4102564,29.2820513 C33.4358974,29.6923077 33.6923077,30.0512821 34.0769231,30.1794872 C34.4615385,30.3333333 34.8974359,30.2307692 35.1794872,29.9487179 L39.4615385,25.6666667 C39.6666667,25.4615385 39.7692308,25.2051282 39.7692308,24.9230769 C39.7692308,24.6410256 39.6666667,24.3846154 39.4615385,24.1794872 L36.4102564,21.1282051 C37.025641,20.8461538 37.5897436,20.4358974 38.0769231,19.974359 C40.3589744,17.6923077 40.3589744,13.974359 38.0769231,11.7179487 Z M36.6153846,18.4871795 C36,19.1025641 35.2051282,19.4871795 34.3333333,19.5641026 C33.9230769,19.6153846 33.5897436,19.8717949 33.4615385,20.2564103 C33.3333333,20.6410256 33.4102564,21.0512821 33.7179487,21.3333333 L37.2820513,24.8974359 L35.025641,27.1538462 C34.7435897,26.5128205 34.3333333,25.8974359 33.8205128,25.4102564 C32.7179487,24.3076923 31.2564103,23.6923077 29.6923077,23.6923077 C28.1282051,23.6923077 26.6666667,24.3076923 25.5641026,25.4102564 C24.4615385,26.5128205 23.8461538,27.974359 23.8461538,29.5384615 C23.8461538,31.1025641 24.4615385,32.5641026 25.5641026,33.6666667 C26.0769231,34.1794872 26.6666667,34.5897436 27.3076923,34.8717949 L24.9230769,37.2564103 L12.5128205,24.8974359 L24.8717949,12.5384615 L28.4358974,16.1025641 C28.7179487,16.3846154 29.1538462,16.4871795 29.5128205,16.3589744 C29.8974359,16.2307692 30.1538462,15.8717949 30.2051282,15.4871795 C30.2820513,14.6153846 30.6666667,13.8205128 31.2820513,13.2051282 C32,12.4871795 32.9487179,12.1025641 33.9487179,12.1025641 C34.9487179,12.1025641 35.8974359,12.4871795 36.6153846,13.2051282 C38.0769231,14.6410256 38.0769231,17.025641 36.6153846,18.4871795 Z" id="Shape" fill="#C50F42" fill-rule="nonzero"></path>
                        </g>
                    </g>
                </g>
            </g>
        </g>
    </g>
</svg>